<svg xmlns="http://www.w3.org/2000/svg" xmlns:xlink="http://www.w3.org/1999/xlink">

<symbol id="dribbble" fill-rule="evenodd" clip-rule="evenodd" stroke-linejoin="round" stroke-miterlimit="1.414">
  <path d="M8 16c-4.41 0-8-3.59-8-8s3.59-8 8-8 8 3.59 8 8-3.59 8-8 8zm6.747-6.905c-.234-.074-2.115-.635-4.257-.292.894 2.456 1.258 4.456 1.328 4.872 1.533-1.037 2.624-2.68 2.93-4.58zM10.67 14.3c-.102-.6-.5-2.688-1.46-5.18l-.044.014C5.312 10.477 3.93 13.15 3.806 13.4c1.158.905 2.614 1.444 4.194 1.444.947 0 1.85-.194 2.67-.543zm-7.747-1.72c.155-.266 2.03-3.37 5.555-4.51.09-.03.18-.056.27-.08-.173-.39-.36-.778-.555-1.16-3.413 1.02-6.723.977-7.023.97l-.003.208c0 1.755.665 3.358 1.756 4.57zM1.31 6.61c.307.005 3.122.017 6.318-.832-1.132-2.012-2.353-3.705-2.533-3.952-1.912.902-3.34 2.664-3.784 4.785zM6.4 1.368c.188.253 1.43 1.943 2.548 4 2.43-.91 3.46-2.293 3.582-2.468C11.323 1.827 9.736 1.176 8 1.176c-.55 0-1.087.066-1.6.19zm6.89 2.322c-.145.194-1.29 1.662-3.816 2.694.16.325.31.656.453.99.05.117.1.235.147.352 2.274-.286 4.533.172 4.758.22-.015-1.613-.59-3.094-1.543-4.257z"/>
</symbol>

<symbol id="facebook" fill-rule="evenodd" clip-rule="evenodd" stroke-linejoin="round" stroke-miterlimit="1.414">
  <path d="M15.117 0H.883C.395 0 0 .395 0 .883v14.234c0 .488.395.883.883.883h7.663V9.804H6.46V7.39h2.086V5.607c0-2.066 1.262-3.19 3.106-3.19.883 0 1.642.064 1.863.094v2.16h-1.28c-1 0-1.195.48-1.195 1.18v1.54h2.39l-.31 2.42h-2.08V16h4.077c.488 0 .883-.395.883-.883V.883C16 .395 15.605 0 15.117 0" fill-rule="nonzero"/>
</symbol>

<symbol id="flickr" fill-rule="evenodd" clip-rule="evenodd" stroke-linejoin="round" stroke-miterlimit="1.414">
  <path d="M0 8c0 2.05 1.662 3.71 3.71 3.71 2.05 0 3.713-1.66 3.713-3.71S5.76 4.29 3.71 4.29C1.663 4.29 0 5.95 0 8zm8.577 0c0 2.05 1.662 3.71 3.712 3.71C14.33 11.71 16 10.05 16 8s-1.662-3.71-3.71-3.71c-2.05 0-3.713 1.66-3.713 3.71z"/>
</symbol>

<symbol id="github" fill-rule="evenodd" clip-rule="evenodd" stroke-linejoin="round" stroke-miterlimit="1.414">
  <path d="M8 0C3.58 0 0 3.582 0 8c0 3.535 2.292 6.533 5.47 7.59.4.075.547-.172.547-.385 0-.19-.007-.693-.01-1.36-2.226.483-2.695-1.073-2.695-1.073-.364-.924-.89-1.17-.89-1.17-.725-.496.056-.486.056-.486.803.056 1.225.824 1.225.824.714 1.223 1.873.87 2.33.665.072-.517.278-.87.507-1.07-1.777-.2-3.644-.888-3.644-3.953 0-.873.31-1.587.823-2.147-.09-.202-.36-1.015.07-2.117 0 0 .67-.215 2.2.82.64-.178 1.32-.266 2-.27.68.004 1.36.092 2 .27 1.52-1.035 2.19-.82 2.19-.82.43 1.102.16 1.915.08 2.117.51.56.82 1.274.82 2.147 0 3.073-1.87 3.75-3.65 3.947.28.24.54.73.54 1.48 0 1.07-.01 1.93-.01 2.19 0 .21.14.46.55.38C13.71 14.53 16 11.53 16 8c0-4.418-3.582-8-8-8"/>
</symbol>

<symbol id="googleplus" fill-rule="evenodd" clip-rule="evenodd" stroke-linejoin="round" stroke-miterlimit="1.414">
  <path d="M5.09 7.273v1.745h2.89c-.116.75-.873 2.197-2.887 2.197-1.737 0-3.155-1.44-3.155-3.215S3.353 4.785 5.09 4.785c.99 0 1.652.422 2.03.786l1.382-1.33c-.887-.83-2.037-1.33-3.41-1.33C2.275 2.91 0 5.19 0 8s2.276 5.09 5.09 5.09c2.94 0 4.888-2.065 4.888-4.974 0-.334-.036-.59-.08-.843H5.09zm10.91 0h-1.455V5.818H13.09v1.455h-1.454v1.454h1.455v1.455h1.46V8.727H16"/>
</symbol>

<symbol id="instagram" fill-rule="evenodd" clip-rule="evenodd" stroke-linejoin="round" stroke-miterlimit="1.414">
  <path d="M8 0C5.827 0 5.555.01 4.702.048 3.85.088 3.27.222 2.76.42c-.526.204-.973.478-1.417.923-.445.444-.72.89-.923 1.417-.198.51-.333 1.09-.372 1.942C.008 5.555 0 5.827 0 8s.01 2.445.048 3.298c.04.852.174 1.433.372 1.942.204.526.478.973.923 1.417.444.445.89.72 1.417.923.51.198 1.09.333 1.942.372.853.04 1.125.048 3.298.048s2.445-.01 3.298-.048c.852-.04 1.433-.174 1.942-.372.526-.204.973-.478 1.417-.923.445-.444.72-.89.923-1.417.198-.51.333-1.09.372-1.942.04-.853.048-1.125.048-3.298s-.01-2.445-.048-3.298c-.04-.852-.174-1.433-.372-1.942-.204-.526-.478-.973-.923-1.417-.444-.445-.89-.72-1.417-.923-.51-.198-1.09-.333-1.942-.372C10.445.008 10.173 0 8 0zm0 1.44c2.136 0 2.39.01 3.233.048.78.036 1.203.166 1.485.276.374.145.64.318.92.598.28.28.453.546.598.92.11.282.24.705.276 1.485.038.844.047 1.097.047 3.233s-.01 2.39-.05 3.233c-.04.78-.17 1.203-.28 1.485-.15.374-.32.64-.6.92-.28.28-.55.453-.92.598-.28.11-.71.24-1.49.276-.85.038-1.1.047-3.24.047s-2.39-.01-3.24-.05c-.78-.04-1.21-.17-1.49-.28-.38-.15-.64-.32-.92-.6-.28-.28-.46-.55-.6-.92-.11-.28-.24-.71-.28-1.49-.03-.84-.04-1.1-.04-3.23s.01-2.39.04-3.24c.04-.78.17-1.21.28-1.49.14-.38.32-.64.6-.92.28-.28.54-.46.92-.6.28-.11.7-.24 1.48-.28.85-.03 1.1-.04 3.24-.04zm0 2.452c-2.27 0-4.108 1.84-4.108 4.108 0 2.27 1.84 4.108 4.108 4.108 2.27 0 4.108-1.84 4.108-4.108 0-2.27-1.84-4.108-4.108-4.108zm0 6.775c-1.473 0-2.667-1.194-2.667-2.667 0-1.473 1.194-2.667 2.667-2.667 1.473 0 2.667 1.194 2.667 2.667 0 1.473-1.194 2.667-2.667 2.667zm5.23-6.937c0 .53-.43.96-.96.96s-.96-.43-.96-.96.43-.96.96-.96.96.43.96.96z"/>
</symbol>

<symbol id="linkedin" fill-rule="evenodd" clip-rule="evenodd" stroke-linejoin="round" stroke-miterlimit="1.414">
  <path d="M13.632 13.635h-2.37V9.922c0-.886-.018-2.025-1.234-2.025-1.235 0-1.424.964-1.424 1.96v3.778h-2.37V6H8.51v1.04h.03c.318-.6 1.092-1.233 2.247-1.233 2.4 0 2.845 1.58 2.845 3.637v4.188zM3.558 4.955c-.762 0-1.376-.617-1.376-1.377 0-.758.614-1.375 1.376-1.375.76 0 1.376.617 1.376 1.375 0 .76-.617 1.377-1.376 1.377zm1.188 8.68H2.37V6h2.376v7.635zM14.816 0H1.18C.528 0 0 .516 0 1.153v13.694C0 15.484.528 16 1.18 16h13.635c.652 0 1.185-.516 1.185-1.153V1.153C16 .516 15.467 0 14.815 0z" fill-rule="nonzero"/>
</symbol>

<symbol id="pinterest" fill-rule="evenodd" clip-rule="evenodd" stroke-linejoin="round" stroke-miterlimit="1.414">
  <path d="M8 0C3.582 0 0 3.582 0 8c0 3.39 2.108 6.285 5.084 7.45-.07-.633-.133-1.604.028-2.295.146-.625.938-3.977.938-3.977s-.24-.48-.24-1.188c0-1.11.646-1.943 1.448-1.943.683 0 1.012.513 1.012 1.127 0 .687-.436 1.713-.662 2.664-.19.797.4 1.445 1.185 1.445 1.42 0 2.514-1.498 2.514-3.662 0-1.91-1.376-3.25-3.342-3.25-2.276 0-3.61 1.71-3.61 3.47 0 .69.263 1.43.593 1.83.066.08.075.15.057.23-.06.25-.196.8-.223.91-.035.15-.115.18-.268.11C3.516 10.46 2.89 9 2.89 7.82c0-2.52 1.834-4.84 5.287-4.84 2.774 0 4.932 1.98 4.932 4.62 0 2.76-1.74 4.98-4.16 4.98-.81 0-1.57-.42-1.84-.92l-.5 1.9c-.18.698-.67 1.57-1 2.1.75.23 1.54.357 2.37.357 4.41 0 8-3.58 8-8s-3.59-8-8-8z" fill-rule="nonzero"/>
</symbol>

<symbol id="rss" fill-rule="evenodd" clip-rule="evenodd" stroke-linejoin="round" stroke-miterlimit="1.414">
  <path d="M12.8 16C12.8 8.978 7.022 3.2 0 3.2V0c8.777 0 16 7.223 16 16h-3.2zM2.194 11.61c1.21 0 2.195.985 2.195 2.196 0 1.21-.99 2.194-2.2 2.194C.98 16 0 15.017 0 13.806c0-1.21.983-2.195 2.194-2.195zM10.606 16h-3.11c0-4.113-3.383-7.497-7.496-7.497v-3.11c5.818 0 10.606 4.79 10.606 10.607z"/>
</symbol>

<symbol id="stackoverflow" class="svg-icon" xmlns="http://www.w3.org/2000/svg" fill-rule="evenodd" clip-rule="evenodd" stroke-linejoin="round" stroke-miterlimit="1.414">
  <path d="M12.658 14.577v-4.27h1.423V16H1.23v-5.693h1.42v4.27h10.006zm-8.583-1.423h7.16V11.73h-7.16v1.424zm.173-3.235l6.987 1.46.3-1.38L4.55 8.54l-.302 1.38zm.906-3.37l6.47 3.02.602-1.3-6.47-3.02-.602 1.29zm1.81-3.19l5.478 4.57.906-1.08L7.87 2.28l-.9 1.078zM10.502 0L9.338.863l4.27 5.735 1.164-.862L10.5 0z"/>
</symbol>

<symbol id="twitter" fill-rule="evenodd" clip-rule="evenodd" stroke-linejoin="round" stroke-miterlimit="1.414">
  <path d="M16 3.038c-.59.26-1.22.437-1.885.517.677-.407 1.198-1.05 1.443-1.816-.634.37-1.337.64-2.085.79-.598-.64-1.45-1.04-2.396-1.04-1.812 0-3.282 1.47-3.282 3.28 0 .26.03.51.085.75-2.728-.13-5.147-1.44-6.766-3.42C.83 2.58.67 3.14.67 3.75c0 1.14.58 2.143 1.46 2.732-.538-.017-1.045-.165-1.487-.41v.04c0 1.59 1.13 2.918 2.633 3.22-.276.074-.566.114-.865.114-.21 0-.41-.02-.61-.058.42 1.304 1.63 2.253 3.07 2.28-1.12.88-2.54 1.404-4.07 1.404-.26 0-.52-.015-.78-.045 1.46.93 3.18 1.474 5.04 1.474 6.04 0 9.34-5 9.34-9.33 0-.14 0-.28-.01-.42.64-.46 1.2-1.04 1.64-1.7z" fill-rule="nonzero"/>
</symbol>

<symbol id="youtube" fill-rule="evenodd" clip-rule="evenodd" stroke-linejoin="round" stroke-miterlimit="1.414">
  <path d="M0 7.345c0-1.294.16-2.59.16-2.59s.156-1.1.636-1.587c.608-.637 1.408-.617 1.764-.684C3.84 2.36 8 2.324 8 2.324s3.362.004 5.6.166c.314.038.996.04 1.604.678.48.486.636 1.588.636 1.588S16 6.05 16 7.346v1.258c0 1.296-.16 2.59-.16 2.59s-.156 1.102-.636 1.588c-.608.638-1.29.64-1.604.678-2.238.162-5.6.166-5.6.166s-4.16-.037-5.44-.16c-.356-.067-1.156-.047-1.764-.684-.48-.487-.636-1.587-.636-1.587S0 9.9 0 8.605v-1.26zm6.348 2.73V5.58l4.323 2.255-4.32 2.24z"/>
</symbol>

<symbol id="mastodon" fill-rule="evenodd" clip-rule="evenodd" stroke-linejoin="round" stroke-miterlimit="1.414">
  <path transform="scale(0.07)" d="M211.80734 139.0875c-3.18125 16.36625-28.4925 34.2775-57.5625 37.74875-15.15875 1.80875-30.08375 3.47125-45.99875 2.74125-26.0275-1.1925-46.565-6.2125-46.565-6.2125 0 2.53375.15625 4.94625.46875 7.2025 3.38375 25.68625 25.47 27.225 46.39125 27.9425 21.11625.7225 39.91875-5.20625 39.91875-5.20625l.8675 19.09s-14.77 7.93125-41.08125 9.39c-14.50875.7975-32.52375-.365-53.50625-5.91875C9.23234 213.82 1.40609 165.31125.20859 116.09125c-.365-14.61375-.14-28.39375-.14-39.91875 0-50.33 32.97625-65.0825 32.97625-65.0825C49.67234 3.45375 78.20359.2425 107.86484 0h.72875c29.66125.2425 58.21125 3.45375 74.8375 11.09 0 0 32.975 14.7525 32.975 65.0825 0 0 .41375 37.13375-4.59875 62.915"/>
  <path transform="scale(0.07)" fill="#FFF" d="M177.50984 80.077v60.94125h-24.14375v-59.15c0-12.46875-5.24625-18.7975-15.74-18.7975-11.6025 0-17.4175 7.5075-17.4175 22.3525v32.37625H96.20734V85.42325c0-14.845-5.81625-22.3525-17.41875-22.3525-10.49375 0-15.74 6.32875-15.74 18.7975v59.15H38.90484V80.077c0-12.455 3.17125-22.3525 9.54125-29.675 6.56875-7.3225 15.17125-11.07625 25.85-11.07625 12.355 0 21.71125 4.74875 27.8975 14.2475l6.01375 10.08125 6.015-10.08125c6.185-9.49875 15.54125-14.2475 27.8975-14.2475 10.6775 0 19.28 3.75375 25.85 11.07625 6.36875 7.3225 9.54 17.22 9.54 29.675"/>
</symbol>

<symbol id="twitch" width="16" height="16" viewBox="0 0 16 16">
  <path d="M3.857 0 1 2.857v10.286h3.429V16l2.857-2.857H9.57L14.714 8V0H3.857zm9.714 7.429-2.285 2.285H9l-2 2v-2H4.429V1.143h9.142v6.286z"/>
  <path d="M11.857 3.143h-1.143V6.57h1.143V3.143zm-3.143 0H7.571V6.57h1.143V3.143z"/>
</symbol>

<symbol id="discord" width="16" height="16" class="bi bi-discord" viewBox="0 0 16 16">
  <path d="M13.545 2.907a13.227 13.227 0 0 0-3.257-1.011.05.05 0 0 0-.052.025c-.141.25-.297.577-.406.833a12.19 12.19 0 0 0-3.658 0 8.258 8.258 0 0 0-.412-.833.051.051 0 0 0-.052-.025c-1.125.194-2.22.534-3.257 1.011a.041.041 0 0 0-.021.018C.356 6.024-.213 9.047.066 12.032c.001.014.01.028.021.037a13.276 13.276 0 0 0 3.995 2.02.05.05 0 0 0 .056-.019c.308-.42.582-.863.818-1.329a.05.05 0 0 0-.01-.059.051.051 0 0 0-.018-.011 8.875 8.875 0 0 1-1.248-.595.05.05 0 0 1-.02-.066.051.051 0 0 1 .015-.019c.084-.063.168-.129.248-.195a.05.05 0 0 1 .051-.007c2.619 1.196 5.454 1.196 8.041 0a.052.052 0 0 1 .053.007c.08.066.164.132.248.195a.051.051 0 0 1-.004.085 8.254 8.254 0 0 1-1.249.594.05.05 0 0 0-.03.03.052.052 0 0 0 .003.041c.24.465.515.909.817 1.329a.05.05 0 0 0 .056.019 13.235 13.235 0 0 0 4.001-2.02.049.049 0 0 0 .021-.037c.334-3.451-.559-6.449-2.366-9.106a.034.034 0 0 0-.02-.019Zm-8.198 7.307c-.789 0-1.438-.724-1.438-1.612 0-.889.637-1.613 1.438-1.613.807 0 1.45.73 1.438 1.613 0 .888-.637 1.612-1.438 1.612Zm5.316 0c-.788 0-1.438-.724-1.438-1.612 0-.889.637-1.613 1.438-1.613.807 0 1.451.73 1.438 1.613 0 .888-.631 1.612-1.438 1.612Z"/>
</symbol>

<symbol id="reddit" width="16" height="16" class="bi bi-reddit" viewBox="0 0 16 16">
  <path d="M6.167 8a.831.831 0 0 0-.83.83c0 .459.372.84.83.831a.831.831 0 0 0 0-1.661zm1.843 3.647c.315 0 1.403-.038 1.976-.611a.232.232 0 0 0 0-.306.213.213 0 0 0-.306 0c-.353.363-1.126.487-1.67.487-.545 0-1.308-.124-1.671-.487a.213.213 0 0 0-.306 0 .213.213 0 0 0 0 .306c.564.563 1.652.61 1.977.61zm.992-2.807c0 .458.373.83.831.83.458 0 .83-.381.83-.83a.831.831 0 0 0-1.66 0z"/>
  <path d="M16 8A8 8 0 1 1 0 8a8 8 0 0 1 16 0zm-3.828-1.165c-.315 0-.602.124-.812.325-.801-.573-1.9-.945-3.121-.993l.534-2.501 1.738.372a.83.83 0 1 0 .83-.869.83.83 0 0 0-.744.468l-1.938-.41a.203.203 0 0 0-.153.028.186.186 0 0 0-.086.134l-.592 2.788c-1.24.038-2.358.41-3.17.992-.21-.2-.496-.324-.81-.324a1.163 1.163 0 0 0-.478 2.224c-.02.115-.029.23-.029.353 0 1.795 2.091 3.256 4.669 3.256 2.577 0 4.668-1.451 4.668-3.256 0-.114-.01-.238-.029-.353.401-.181.688-.592.688-1.069 0-.65-.525-1.165-1.165-1.165z"/>
</symbol>

<symbol id="stackoverflow" width="16" height="16" class="bi bi-stack-overflow" viewBox="0 0 16 16">
  <path d="M12.412 14.572V10.29h1.428V16H1v-5.71h1.428v4.282h9.984z"/>
  <path d="M3.857 13.145h7.137v-1.428H3.857v1.428zM10.254 0 9.108.852l4.26 5.727 1.146-.852L10.254 0zm-3.54 3.377 5.484 4.567.913-1.097L7.627 2.28l-.914 1.097zM4.922 6.55l6.47 3.013.603-1.294-6.47-3.013-.603 1.294zm-.925 3.344 6.985 1.469.294-1.398-6.985-1.468-.294 1.397z"/>
</symbol>

<symbol id="steam" width="16" height="16" class="bi bi-steam" viewBox="0 0 16 16">
  <path d="M.329 10.333A8.01 8.01 0 0 0 7.99 16C12.414 16 16 12.418 16 8s-3.586-8-8.009-8A8.006 8.006 0 0 0 0 7.468l.003.006 4.304 1.769A2.198 2.198 0 0 1 5.62 8.88l1.96-2.844-.001-.04a3.046 3.046 0 0 1 3.042-3.043 3.046 3.046 0 0 1 3.042 3.043 3.047 3.047 0 0 1-3.111 3.044l-2.804 2a2.223 2.223 0 0 1-3.075 2.11 2.217 2.217 0 0 1-1.312-1.568L.33 10.333Z"/>
  <path d="M4.868 12.683a1.715 1.715 0 0 0 1.318-3.165 1.705 1.705 0 0 0-1.263-.02l1.023.424a1.261 1.261 0 1 1-.97 2.33l-.99-.41a1.7 1.7 0 0 0 .882.84Zm3.726-6.687a2.03 2.03 0 0 0 2.027 2.029 2.03 2.03 0 0 0 2.027-2.029 2.03 2.03 0 0 0-2.027-2.027 2.03 2.03 0 0 0-2.027 2.027Zm2.03-1.527a1.524 1.524 0 1 1-.002 3.048 1.524 1.524 0 0 1 .002-3.048Z"/>
</symbol>

<symbol id="strava" width="16" height="16" class="bi bi-strava" viewBox="0 0 16 16">
  <path d="M6.731 0 2 9.125h2.788L6.73 5.497l1.93 3.628h2.766L6.731 0zm4.694 9.125-1.372 2.756L8.66 9.125H6.547L10.053 16l3.484-6.875h-2.112z"/>
</symbol>

<symbol id="cc" x="0px" y="0px" width="54.952px" height="54.952px" viewBox="0 0 54.952 54.952" enable-background="new 0 0 54.952 54.952" xml:space="preserve">
  <g>
  	<path d="M36.307,32.333c-1.21,0-2.126-0.442-2.748-1.325c-0.622-0.883-0.932-2.061-0.932-3.532
  		c0-3.238,1.227-4.857,3.68-4.857c0.523,0,1.071,0.164,1.644,0.491c0.572,0.327,1.055,0.9,1.448,1.717l3.63-1.914
  		c-1.439-2.649-3.86-3.974-7.261-3.974c-2.323,0-4.244,0.769-5.765,2.306c-1.521,1.538-2.281,3.615-2.281,6.231
  		c0,2.682,0.744,4.776,2.232,6.28c1.488,1.504,3.475,2.257,5.961,2.257c1.504,0,2.895-0.384,4.17-1.153
  		c1.276-0.768,2.289-1.823,3.042-3.165l-3.435-1.717C39.038,31.548,37.91,32.333,36.307,32.333z"/>
  	<path d="M20.459,32.333c-1.21,0-2.126-0.442-2.748-1.325c-0.622-0.883-0.932-2.061-0.932-3.532
  		c0-3.238,1.227-4.857,3.68-4.857c0.491,0,1.022,0.164,1.595,0.491c0.572,0.327,1.055,0.9,1.447,1.717l3.68-1.914
  		c-1.472-2.649-3.909-3.974-7.311-3.974c-2.323,0-4.244,0.769-5.765,2.306c-1.521,1.538-2.282,3.615-2.282,6.231
  		c0,2.682,0.752,4.776,2.257,6.28c1.504,1.504,3.483,2.257,5.937,2.257c1.537,0,2.944-0.384,4.219-1.153
  		c1.276-0.768,2.273-1.823,2.993-3.165l-3.385-1.717C23.19,31.548,22.062,32.333,20.459,32.333z"/>
  	<path d="M52.94,16.903c-1.342-3.32-3.304-6.272-5.888-8.856C41.655,2.683,35.113,0,27.427,0
  		C19.805,0,13.377,2.667,8.145,7.998c-2.649,2.649-4.669,5.651-6.059,9.003C0.694,20.354,0,23.845,0,27.476
  		c0,3.664,0.687,7.147,2.061,10.451c1.374,3.304,3.377,6.272,6.01,8.905c2.633,2.633,5.609,4.645,8.93,6.035
  		c3.32,1.391,6.795,2.085,10.426,2.085s7.146-0.703,10.549-2.11c3.401-1.406,6.443-3.435,9.125-6.084
  		c2.583-2.518,4.539-5.421,5.863-8.708c1.325-3.288,1.987-6.812,1.987-10.573C54.952,23.747,54.281,20.223,52.94,16.903z
  		 M43.569,43.226c-2.225,2.159-4.719,3.811-7.482,4.955c-2.765,1.146-5.618,1.717-8.562,1.717c-2.977,0-5.823-0.564-8.537-1.692
  		c-2.715-1.128-5.152-2.764-7.311-4.907c-2.159-2.142-3.819-4.579-4.98-7.311c-1.162-2.73-1.742-5.568-1.742-8.512
  		c0-2.976,0.58-5.83,1.742-8.562c1.161-2.731,2.821-5.192,4.98-7.384c4.285-4.383,9.567-6.575,15.848-6.575
  		c6.214,0,11.53,2.208,15.946,6.624c2.125,2.127,3.745,4.547,4.857,7.262c1.112,2.715,1.668,5.593,1.668,8.635
  		C49.996,33.789,47.854,39.039,43.569,43.226z"/>
  </g>
</symbol>

<symbol id="cc-attribution" x="0px" y="0px" width="54.953px" height="54.953px" viewBox="0 0 54.953 54.953" enable-background="new 0 0 54.953 54.953">
   <g>
    <path d="M27.476,17.418c2.551,0,3.827-1.276,3.827-3.827c0-2.583-1.276-3.876-3.827-3.876
    	c-2.551,0-3.827,1.292-3.827,3.876C23.649,16.142,24.924,17.418,27.476,17.418z"/>
    <path d="M46.955,7.949C41.655,2.649,35.146,0,27.427,0C19.838,0,13.395,2.649,8.096,7.949
    	C2.699,13.444,0,19.953,0,27.476C0,35,2.699,41.458,8.096,46.856c5.462,5.397,11.905,8.097,19.331,8.097
    	c7.556,0,14.114-2.73,19.674-8.195c5.232-5.135,7.852-11.562,7.852-19.281C54.953,19.79,52.285,13.28,46.955,7.949z M43.52,43.226
    	c-4.547,4.48-9.878,6.723-15.995,6.723c-6.15,0-11.449-2.225-15.897-6.674c-4.449-4.447-6.672-9.714-6.672-15.798
    	c0-6.051,2.24-11.366,6.722-15.946c4.317-4.383,9.6-6.575,15.848-6.575c6.214,0,11.513,2.192,15.896,6.575
    	c4.384,4.383,6.576,9.698,6.576,15.946C49.996,33.822,47.837,39.072,43.52,43.226z"/>
    <path d="M33.119,18.89H21.833c-0.491,0-0.908,0.172-1.251,0.515c-0.343,0.344-0.515,0.761-0.515,1.251v11.235h3.14
		v13.345h8.537V31.892h3.141V20.656c0-0.491-0.18-0.908-0.54-1.251C33.984,19.062,33.576,18.89,33.119,18.89z"/>
  </g>
</symbol>

<symbol id="cc-nc" x="0px" y="0px" width="54.952px" height="54.952px" viewBox="0 0 54.952 54.952" enable-background="new 0 0 54.952 54.952" xml:space="preserve">
<path d="M46.954,7.948C41.655,2.649,35.146,0,27.427,0C19.838,0,13.395,2.649,8.096,7.948
	C2.699,13.443,0,19.953,0,27.476c0,7.491,2.699,13.934,8.096,19.331c5.429,5.43,11.873,8.145,19.331,8.145
	c7.556,0,14.113-2.731,19.674-8.194c5.233-5.135,7.851-11.562,7.851-19.282C54.952,19.756,52.285,13.247,46.954,7.948z
	 M43.52,43.176c-4.481,4.481-9.812,6.722-15.995,6.722c-6.117,0-11.416-2.208-15.897-6.624c-4.449-4.448-6.672-9.715-6.672-15.799
	c0-2.682,0.409-5.151,1.227-7.409l14.032,6.28l4.367,1.914l3.238,1.472l2.649,1.129c0.491,0.425,0.736,0.981,0.736,1.668
	c0,0.981-0.336,1.685-1.006,2.11c-0.671,0.425-1.48,0.638-2.429,0.638c-2.29,0-4.334-0.834-6.133-2.502l-3.778,3.827
	c2.518,2.159,5.299,3.255,8.341,3.287v4.22h3.189v-4.22c1.896-0.163,3.541-0.792,4.931-1.889c1.39-1.096,2.265-2.51,2.625-4.244
	l10.353,4.612C46.381,40.036,45.122,41.639,43.52,43.176z M35.228,27.083l-4.416-1.962l-2.404-1.08l-3.483-1.57
	c-0.164-0.229-0.245-0.458-0.245-0.687c0-0.785,0.335-1.341,1.006-1.668c0.67-0.327,1.43-0.491,2.281-0.491
	c1.603,0,3.172,0.54,4.71,1.619l3.582-3.68c-2.061-1.57-4.351-2.42-6.869-2.551v-4.22H26.2v4.22
	c-1.701,0.098-3.189,0.581-4.465,1.447c-1.276,0.867-2.143,2.02-2.601,3.459l-10.5-4.71c0.948-1.374,1.962-2.601,3.042-3.68
	c4.317-4.416,9.6-6.624,15.848-6.624c6.247,0,11.546,2.208,15.896,6.624c4.383,4.318,6.575,9.633,6.575,15.946
	c0,1.996-0.229,3.958-0.687,5.888L35.228,27.083z"/>
</symbol>

</svg>
