<svg xmlns="http://www.w3.org/2000/svg" xmlns:inkscape="http://www.inkscape.org/namespaces/inkscape" width="2240" height="1400" viewBox="0 0 32 20">
<g id="unhinted" inkscape:groupmode="layer" inkscape:label="unhinted" fill="none" stroke="#ddd" stroke-width="0.1">
<rect x="7" y="4" width="1" height="1" />
<rect x="8" y="4" width="1" height="1" />
<rect x="19" y="4" width="1" height="1" />
<rect x="20" y="4" width="1" height="1" />
<rect x="21" y="4" width="1" height="1" />
<rect x="23" y="4" width="1" height="1" />
<rect x="24" y="4" width="1" height="1" />
<rect x="5" y="5" width="1" height="1" />
<rect x="6" y="5" width="1" height="1" />
<rect x="17" y="5" width="1" height="1" />
<rect x="18" y="5" width="1" height="1" />
<rect x="21" y="5" width="1" height="1" />
<rect x="22" y="5" width="1" height="1" />
<rect x="4" y="6" width="1" height="1" />
<rect x="17" y="6" width="1" height="1" />
<rect x="21" y="6" width="1" height="1" />
<rect x="4" y="7" width="1" height="1" />
<rect x="17" y="7" width="1" height="1" />
<rect x="20" y="7" width="1" height="1" />
<rect x="4" y="8" width="1" height="1" />
<rect x="17" y="8" width="1" height="1" />
<rect x="20" y="8" width="1" height="1" />
<rect x="4" y="9" width="1" height="1" />
<rect x="7" y="9" width="1" height="1" />
<rect x="13" y="9" width="1" height="1" />
<rect x="16" y="9" width="1" height="1" />
<rect x="20" y="9" width="1" height="1" />
<rect x="26" y="9" width="1" height="1" />
<rect x="4" y="10" width="1" height="1" />
<rect x="6" y="10" width="1" height="1" />
<rect x="7" y="10" width="1" height="1" />
<rect x="8" y="10" width="1" height="1" />
<rect x="11" y="10" width="1" height="1" />
<rect x="12" y="10" width="1" height="1" />
<rect x="13" y="10" width="1" height="1" />
<rect x="14" y="10" width="1" height="1" />
<rect x="16" y="10" width="1" height="1" />
<rect x="20" y="10" width="1" height="1" />
<rect x="24" y="10" width="1" height="1" />
<rect x="25" y="10" width="1" height="1" />
<rect x="26" y="10" width="1" height="1" />
<rect x="27" y="10" width="1" height="1" />
<rect x="4" y="11" width="1" height="1" />
<rect x="5" y="11" width="1" height="1" />
<rect x="7" y="11" width="1" height="1" />
<rect x="11" y="11" width="1" height="1" />
<rect x="13" y="11" width="1" height="1" />
<rect x="16" y="11" width="1" height="1" />
<rect x="20" y="11" width="1" height="1" />
<rect x="23" y="11" width="1" height="1" />
<rect x="27" y="11" width="1" height="1" />
<rect x="4" y="12" width="1" height="1" />
<rect x="7" y="12" width="1" height="1" />
<rect x="10" y="12" width="1" height="1" />
<rect x="12" y="12" width="1" height="1" />
<rect x="16" y="12" width="1" height="1" />
<rect x="20" y="12" width="1" height="1" />
<rect x="23" y="12" width="1" height="1" />
<rect x="27" y="12" width="1" height="1" />
<rect x="3" y="13" width="1" height="1" />
<rect x="7" y="13" width="1" height="1" />
<rect x="10" y="13" width="1" height="1" />
<rect x="11" y="13" width="1" height="1" />
<rect x="16" y="13" width="1" height="1" />
<rect x="20" y="13" width="1" height="1" />
<rect x="23" y="13" width="1" height="1" />
<rect x="27" y="13" width="1" height="1" />
<rect x="3" y="14" width="1" height="1" />
<rect x="7" y="14" width="1" height="1" />
<rect x="8" y="14" width="1" height="1" />
<rect x="9" y="14" width="1" height="1" />
<rect x="10" y="14" width="1" height="1" />
<rect x="13" y="14" width="1" height="1" />
<rect x="14" y="14" width="1" height="1" />
<rect x="16" y="14" width="1" height="1" />
<rect x="17" y="14" width="1" height="1" />
<rect x="20" y="14" width="1" height="1" />
<rect x="21" y="14" width="1" height="1" />
<rect x="23" y="14" width="1" height="1" />
<rect x="26" y="14" width="1" height="1" />
<rect x="3" y="15" width="1" height="1" />
<rect x="7" y="15" width="1" height="1" />
<rect x="8" y="15" width="1" height="1" />
<rect x="11" y="15" width="1" height="1" />
<rect x="12" y="15" width="1" height="1" />
<rect x="16" y="15" width="1" height="1" />
<rect x="17" y="15" width="1" height="1" />
<rect x="20" y="15" width="1" height="1" />
<rect x="23" y="15" width="1" height="1" />
<rect x="24" y="15" width="1" height="1" />
<rect x="25" y="15" width="1" height="1" />
</g>
<g id="hinted" inkscape:groupmode="layer" inkscape:label="hinted" fill="#000" stroke="none">
<rect x="7" y="4" width="1" height="1" />
<rect x="8" y="4" width="1" height="1" />
<rect x="9" y="4" width="1" height="1" />
<rect x="19" y="4" width="1" height="1" />
<rect x="20" y="4" width="1" height="1" />
<rect x="23" y="4" width="1" height="1" />
<rect x="24" y="4" width="1" height="1" />
<rect x="5" y="5" width="1" height="1" />
<rect x="6" y="5" width="1" height="1" />
<rect x="17" y="5" width="1" height="1" />
<rect x="18" y="5" width="1" height="1" />
<rect x="21" y="5" width="1" height="1" />
<rect x="22" y="5" width="1" height="1" />
<rect x="5" y="6" width="1" height="1" />
<rect x="16" y="6" width="1" height="1" />
<rect x="20" y="6" width="1" height="1" />
<rect x="4" y="7" width="1" height="1" />
<rect x="16" y="7" width="1" height="1" />
<rect x="20" y="7" width="1" height="1" />
<rect x="4" y="8" width="1" height="1" />
<rect x="16" y="8" width="1" height="1" />
<rect x="20" y="8" width="1" height="1" />
<rect x="4" y="9" width="1" height="1" />
<rect x="7" y="9" width="1" height="1" />
<rect x="8" y="9" width="1" height="1" />
<rect x="12" y="9" width="1" height="1" />
<rect x="13" y="9" width="1" height="1" />
<rect x="16" y="9" width="1" height="1" />
<rect x="20" y="9" width="1" height="1" />
<rect x="25" y="9" width="1" height="1" />
<rect x="26" y="9" width="1" height="1" />
<rect x="27" y="9" width="1" height="1" />
<rect x="4" y="10" width="1" height="1" />
<rect x="5" y="10" width="1" height="1" />
<rect x="6" y="10" width="1" height="1" />
<rect x="8" y="10" width="1" height="1" />
<rect x="11" y="10" width="1" height="1" />
<rect x="13" y="10" width="1" height="1" />
<rect x="16" y="10" width="1" height="1" />
<rect x="20" y="10" width="1" height="1" />
<rect x="24" y="10" width="1" height="1" />
<rect x="27" y="10" width="1" height="1" />
<rect x="4" y="11" width="1" height="1" />
<rect x="8" y="11" width="1" height="1" />
<rect x="10" y="11" width="1" height="1" />
<rect x="12" y="11" width="1" height="1" />
<rect x="15" y="11" width="1" height="1" />
<rect x="19" y="11" width="1" height="1" />
<rect x="23" y="11" width="1" height="1" />
<rect x="27" y="11" width="1" height="1" />
<rect x="3" y="12" width="1" height="1" />
<rect x="4" y="12" width="1" height="1" />
<rect x="8" y="12" width="1" height="1" />
<rect x="10" y="12" width="1" height="1" />
<rect x="11" y="12" width="1" height="1" />
<rect x="15" y="12" width="1" height="1" />
<rect x="19" y="12" width="1" height="1" />
<rect x="23" y="12" width="1" height="1" />
<rect x="27" y="12" width="1" height="1" />
<rect x="3" y="13" width="1" height="1" />
<rect x="7" y="13" width="1" height="1" />
<rect x="10" y="13" width="1" height="1" />
<rect x="15" y="13" width="1" height="1" />
<rect x="19" y="13" width="1" height="1" />
<rect x="23" y="13" width="1" height="1" />
<rect x="27" y="13" width="1" height="1" />
<rect x="3" y="14" width="1" height="1" />
<rect x="7" y="14" width="1" height="1" />
<rect x="9" y="14" width="1" height="1" />
<rect x="10" y="14" width="1" height="1" />
<rect x="13" y="14" width="1" height="1" />
<rect x="15" y="14" width="1" height="1" />
<rect x="17" y="14" width="1" height="1" />
<rect x="19" y="14" width="1" height="1" />
<rect x="21" y="14" width="1" height="1" />
<rect x="23" y="14" width="1" height="1" />
<rect x="26" y="14" width="1" height="1" />
<rect x="3" y="15" width="1" height="1" />
<rect x="7" y="15" width="1" height="1" />
<rect x="8" y="15" width="1" height="1" />
<rect x="11" y="15" width="1" height="1" />
<rect x="12" y="15" width="1" height="1" />
<rect x="15" y="15" width="1" height="1" />
<rect x="16" y="15" width="1" height="1" />
<rect x="19" y="15" width="1" height="1" />
<rect x="20" y="15" width="1" height="1" />
<rect x="23" y="15" width="1" height="1" />
<rect x="24" y="15" width="1" height="1" />
<rect x="25" y="15" width="1" height="1" />
</g>
<g id="outline" inkscape:groupmode="layer" inkscape:label="outline" fill="none" stroke="#99f" stroke-width="0.15">
<path d="M4.5087890625,12.2265625 C5.0419921875,11.424479166666666 5.628743489583333,10.762532552083334 6.26904296875,10.24072265625 C6.909342447916667,9.718912760416666 7.457356770833333,9.4580078125 7.9130859375,9.4580078125 C8.355143229166666,9.4580078125 8.576171875,9.765625 8.576171875,10.380859375 C8.576171875,10.563151041666666 8.548828125,10.843424479166666 8.494140625,11.2216796875 L8.1318359375,13.771484375 C8.058919270833334,14.281901041666666 8.0224609375,14.685221354166666 8.0224609375,14.9814453125 C8.0224609375,15.218424479166666 8.086263020833334,15.3369140625 8.2138671875,15.3369140625 C8.5283203125,15.3369140625 8.913411458333334,14.917643229166666 9.369140625,14.0791015625 C9.483072916666666,14.1474609375 9.5400390625,14.218098958333334 9.5400390625,14.291015625 C9.5400390625,14.587239583333334 9.285970052083334,14.975748697916666 8.77783203125,15.45654296875 C8.269694010416666,15.937337239583334 7.856119791666667,16.177734375 7.537109375,16.177734375 C7.181640625,16.177734375 7.00390625,15.922526041666666 7.00390625,15.412109375 C7.00390625,15.038411458333334 7.0517578125,14.521158854166666 7.1474609375,13.8603515625 L7.3798828125,12.2060546875 C7.457356770833333,11.663736979166666 7.49609375,11.233072916666666 7.49609375,10.9140625 C7.49609375,10.563151041666666 7.370768229166667,10.3876953125 7.1201171875,10.3876953125 C6.536783854166667,10.3876953125 5.946614583333333,10.783040364583334 5.349609375,11.57373046875 C4.752604166666667,12.364420572916666 4.401692708333333,13.213216145833334 4.296875,14.1201171875 L4.119140625,15.7607421875 L3.1005859375,16.177734375 L3.12109375,15.986328125 L3.17578125,15.48046875 L3.23046875,15.001953125 L3.8935546875,9.013671875 C4.053059895833333,7.600911458333334 4.5771484375,6.394368489583333 5.4658203125,5.39404296875 C6.3544921875,4.393717447916667 7.347981770833334,3.8935546875 8.4462890625,3.8935546875 C8.674153645833334,3.8935546875 8.895182291666666,3.9186197916666665 9.109375,3.96875 L8.1044921875,4.953125 C7.8447265625,4.875651041666667 7.5986328125,4.8369140625 7.3662109375,4.8369140625 C6.0126953125,4.8369140625 5.217447916666667,5.894205729166667 4.98046875,8.0087890625 Z M14.33203125,13.826171875 C14.445963541666666,13.903645833333334 14.5029296875,13.994791666666666 14.5029296875,14.099609375 C14.5029296875,14.240885416666666 14.357096354166666,14.482421875 14.0654296875,14.82421875 C13.2861328125,15.7265625 12.515950520833334,16.177734375 11.7548828125,16.177734375 C11.2900390625,16.177734375 10.9072265625,15.9931640625 10.6064453125,15.6240234375 C10.3056640625,15.2548828125 10.1552734375,14.783203125 10.1552734375,14.208984375 C10.1552734375,13.169921875 10.54833984375,12.118326822916666 11.33447265625,11.05419921875 C12.12060546875,9.990071614583334 12.898763020833334,9.4580078125 13.6689453125,9.4580078125 C14.224934895833334,9.4580078125 14.5029296875,9.756510416666666 14.5029296875,10.353515625 C14.5029296875,11.0234375 14.17822265625,11.677408854166666 13.52880859375,12.3154296875 C12.87939453125,12.953450520833334 12.087565104166666,13.397786458333334 11.1533203125,13.6484375 C11.244466145833334,14.746744791666666 11.677408854166666,15.2958984375 12.4521484375,15.2958984375 C13.2177734375,15.2958984375 13.844401041666666,14.805989583333334 14.33203125,13.826171875 Z M11.1806640625,12.814453125 C11.312825520833334,12.860026041666666 11.43359375,12.8828125 11.54296875,12.8828125 C12.108072916666666,12.8828125 12.6025390625,12.709635416666666 13.0263671875,12.36328125 C13.4501953125,12.016927083333334 13.662109375,11.611328125 13.662109375,11.146484375 C13.662109375,10.61328125 13.390950520833334,10.3466796875 12.8486328125,10.3466796875 C12.456705729166666,10.3466796875 12.102376302083334,10.580240885416666 11.78564453125,11.04736328125 C11.468912760416666,11.514485677083334 11.267252604166666,12.103515625 11.1806640625,12.814453125 Z M18.1533203125,13.990234375 C18.285481770833332,14.054036458333334 18.3515625,14.136067708333334 18.3515625,14.236328125 C18.3515625,14.564453125 18.106608072916668,14.970052083333334 17.61669921875,15.453125 C17.126790364583332,15.936197916666666 16.715494791666668,16.177734375 16.3828125,16.177734375 C16.004557291666668,16.177734375 15.8154296875,15.904296875 15.8154296875,15.357421875 C15.8154296875,15.024739583333334 15.8359375,14.685221354166666 15.876953125,14.3388671875 L15.9521484375,13.73046875 L16.478515625,8.97265625 C16.642578125,7.5234375 17.140462239583332,6.3134765625 17.97216796875,5.3427734375 C18.803873697916668,4.3720703125 19.762044270833332,3.88671875 20.8466796875,3.88671875 C21.111002604166668,3.88671875 21.334309895833332,3.9095052083333335 21.5166015625,3.955078125 L20.5458984375,4.9462890625 C20.331705729166668,4.873372395833333 20.0810546875,4.8369140625 19.7939453125,4.8369140625 C19.1103515625,4.8369140625 18.598795572916668,5.077311197916667 18.25927734375,5.55810546875 C17.919759114583332,6.038899739583333 17.686197916666668,6.853515625 17.55859375,8.001953125 L16.9228515625,13.73046875 C16.872721354166668,14.172526041666666 16.84765625,14.4892578125 16.84765625,14.6806640625 C16.84765625,15.0908203125 16.918294270833332,15.2958984375 17.0595703125,15.2958984375 C17.228190104166668,15.2958984375 17.426432291666668,15.160319010416666 17.654296875,14.88916015625 C17.882161458333332,14.618001302083334 18.048502604166668,14.318359375 18.1533203125,13.990234375 Z M21.8857421875,13.990234375 C22.017903645833332,14.054036458333334 22.083984375,14.136067708333334 22.083984375,14.236328125 C22.083984375,14.564453125 21.839029947916668,14.970052083333334 21.34912109375,15.453125 C20.859212239583332,15.936197916666666 20.447916666666668,16.177734375 20.115234375,16.177734375 C19.736979166666668,16.177734375 19.5478515625,15.904296875 19.5478515625,15.357421875 C19.5478515625,15.024739583333334 19.568359375,14.685221354166666 19.609375,14.3388671875 L19.6845703125,13.73046875 L20.2109375,8.97265625 C20.375,7.5234375 20.872884114583332,6.3134765625 21.70458984375,5.3427734375 C22.536295572916668,4.3720703125 23.494466145833332,3.88671875 24.5791015625,3.88671875 C24.843424479166668,3.88671875 25.066731770833332,3.9095052083333335 25.2490234375,3.955078125 L24.2783203125,4.9462890625 C24.064127604166668,4.873372395833333 23.8134765625,4.8369140625 23.5263671875,4.8369140625 C22.8427734375,4.8369140625 22.331217447916668,5.077311197916667 21.99169921875,5.55810546875 C21.652180989583332,6.038899739583333 21.418619791666668,6.853515625 21.291015625,8.001953125 L20.6552734375,13.73046875 C20.605143229166668,14.172526041666666 20.580078125,14.4892578125 20.580078125,14.6806640625 C20.580078125,15.0908203125 20.650716145833332,15.2958984375 20.7919921875,15.2958984375 C20.960611979166668,15.2958984375 21.158854166666668,15.160319010416666 21.38671875,14.88916015625 C21.614583333333332,14.618001302083334 21.780924479166668,14.318359375 21.8857421875,13.990234375 Z M24.3603515625,16.177734375 C23.3349609375,16.177734375 22.822265625,15.498697916666666 22.822265625,14.140625 C22.822265625,13.046875 23.223307291666668,11.993001302083334 24.025390625,10.97900390625 C24.827473958333332,9.965006510416666 25.6591796875,9.4580078125 26.5205078125,9.4580078125 C27.5595703125,9.4580078125 28.0791015625,10.137044270833334 28.0791015625,11.4951171875 C28.0791015625,12.593424479166666 27.678059895833332,13.6484375 26.8759765625,14.66015625 C26.073893229166668,15.671875 25.2353515625,16.177734375 24.3603515625,16.177734375 Z M25.1875,15.412109375 C25.711588541666668,15.412109375 26.150227864583332,15.120442708333334 26.50341796875,14.537109375 C26.856608072916668,13.953776041666666 27.033203125,13.226888020833334 27.033203125,12.3564453125 C27.033203125,10.9345703125 26.591145833333332,10.2236328125 25.70703125,10.2236328125 C25.1875,10.2236328125 24.751139322916668,10.516438802083334 24.39794921875,11.10205078125 C24.044759114583332,11.687662760416666 23.8681640625,12.413411458333334 23.8681640625,13.279296875 C23.8681640625,14.701171875 24.307942708333332,15.412109375 25.1875,15.412109375 Z " />
</g>
</svg>